# xmcd
#
# Track frame offsets:
#	150
#	15170
#	35424
#	51334
#	63898
#	87960
#	102125
#	118708
#	139694
#	155405
#	172784
#	188907
#
# Disc length: 2752 seconds
#
# Revision: 0
# Processed by: cddbd v1.5.1PL0 Copyright (c) Steve Scherf et al.
# Submitted via: dBpowerAMP V4.0
#
DISCID=8d0abe0c
DTITLE=Obi Bathmann - Banjo Landscapes
DYEAR=1900
DGENRE=Bluegrass
TTITLE0=Monopoly
TTITLE1=Shortcut throught the woods
TTITLE2=Cats in the grass
TTITLE3=Spring on the pond
TTITLE4=Summer rain
TTITLE5=Obi's Reel
TTITLE6=Risiko
TTITLE7=Sand and snow
TTITLE8=The Haymaker's Ball
TTITLE9=Clover leaves
TTITLE10=Snow walk
TTITLE11=After the harvest
EXTD=
EXTT0=
EXTT1=
EXTT2=
EXTT3=
EXTT4=
EXTT5=
EXTT6=
EXTT7=
EXTT8=
EXTT9=
EXTT10=
EXTT11=
PLAYORDER=
